<svg width="117" height="22" viewBox="0 0 117 22" fill="none" xmlns="http://www.w3.org/2000/svg">
<path d="M14.9738 9.35128C17.8068 7.037 23.5925 -1.30237 14.5349 0.173977C10.5846 0.772497 4.79896 4.60302 3.64182 9.03207C3.0433 7.83503 2.36498 6.71779 1.64675 5.60056C0.529514 4.08431 -0.707427 5.28135 0.489613 6.7976C4.03805 11.0938 6.08393 16.4327 6.31521 22C6.59452 19.3266 6.1556 16.0547 5.07827 12.8626C5.59698 13.0222 6.1955 13.102 6.71422 13.102C8.54968 16.1345 11.3827 18.7281 14.5349 19.9251C17.4477 21.0823 21.3181 20.4039 19.7221 15.7355C18.8841 13.1818 16.929 10.9473 14.9738 9.35128ZM15.3728 1.25131C20.4004 0.692694 15.0137 6.9572 13.258 8.11434C11.6221 7.037 9.54721 6.07937 7.55215 6.35868C8.9886 4.48332 12.4999 1.61042 15.3728 1.25131ZM7.51225 7.71533C8.86889 7.59562 10.3452 8.35375 11.5024 9.15178C10.3851 9.71039 9.1881 10.0296 7.95116 10.1493C6.1157 10.1493 5.71669 7.87493 7.51225 7.71533ZM14.4551 17.4513C12.1009 16.7729 9.86643 14.8577 8.27037 12.9424C9.58712 12.6631 10.9039 12.1444 12.1009 11.4261C12.5398 11.2266 12.9787 10.9074 13.3777 10.6281C14.7743 11.905 16.2506 13.6207 16.8093 15.5759C17.3679 17.6907 15.8516 17.8503 14.4551 17.4513Z" fill="#F5A623"/>
<path d="M34.2432 4.08499H27.3802C27.1408 4.08499 26.9413 4.28449 26.9413 4.5239H26.9014V15.2973C26.9014 15.5367 27.1009 15.7362 27.3403 15.7362C27.5398 15.7362 27.7393 15.5367 27.7792 15.2973V10.4293H33.6048C33.8442 10.4293 33.9639 10.2298 33.9639 10.0303C33.9639 9.79087 33.8043 9.67117 33.6048 9.67117H27.7393V4.92291H34.2432C34.4826 4.92291 34.6023 4.72341 34.6023 4.5239C34.6023 4.4042 34.4826 4.24459 34.2432 4.08499ZM37.3954 3.52637H37.3555C37.156 3.52637 37.0363 3.68597 37.0363 3.88548V15.2574C37.0363 15.4968 37.1959 15.6564 37.3954 15.6564C37.6348 15.6564 37.7545 15.4569 37.7545 15.2574V3.96528C37.7545 3.68597 37.6348 3.52637 37.3954 3.52637ZM47.3308 7.5963C47.3308 7.35689 47.1712 7.19729 46.9717 7.19729C46.7323 7.19729 46.6126 7.3968 46.6126 7.5963V12.3446C46.6126 13.9406 45.3757 15.2175 43.8594 15.1776C42.2634 15.1776 41.3456 14.0603 41.3456 12.3047V7.5963C41.3456 7.35689 41.186 7.19729 40.9865 7.19729C40.8269 7.19729 40.6274 7.3968 40.6274 7.5963V12.4244C40.6274 14.4194 41.8245 15.8958 43.7796 15.8958C44.9767 15.9357 46.0939 15.2574 46.6525 14.1401V15.3771C46.6525 15.6165 46.852 15.7362 47.0116 15.7362C47.251 15.7362 47.3707 15.5367 47.3707 15.3771H47.3308V7.5963ZM53.9146 7.99532C54.0742 7.99532 54.2737 7.83571 54.2737 7.6362C54.2737 7.4766 54.0742 7.27709 53.9146 7.27709H51.4008V4.92291C51.4008 4.72341 51.2013 4.5239 51.0417 4.5239H51.0018C50.8023 4.5239 50.6826 4.72341 50.6826 4.92291V7.27709H49.8047C49.6052 7.27709 49.4456 7.3968 49.4456 7.5963C49.4456 7.79581 49.6052 7.99532 49.8047 7.99532H50.6826V13.5017C50.6826 15.0578 51.6801 15.816 52.8372 15.816C53.2362 15.816 53.6353 15.7362 53.9944 15.6165C54.1141 15.5367 54.2338 15.417 54.2338 15.2574C54.2338 15.0578 54.0742 14.9381 53.9146 14.9381C53.6353 15.0179 53.316 15.0578 52.9968 15.0578C52.0392 15.0578 51.4008 14.6189 51.4008 13.4219V7.99532H53.9146ZM60.0993 7.99532C60.2988 7.99532 60.4584 7.83571 60.4584 7.6362C60.4584 7.4766 60.2988 7.27709 60.0993 7.27709H57.5855V4.92291C57.5855 4.72341 57.4259 4.5239 57.2264 4.5239H57.1865C56.987 4.5239 56.8673 4.72341 56.8673 4.92291V7.27709H55.9894C55.8298 7.27709 55.6303 7.3968 55.6303 7.5963C55.6303 7.79581 55.8298 7.99532 55.9894 7.99532H56.8673V13.5017C56.8673 15.0578 57.8648 15.816 59.0618 15.816C59.4209 15.816 59.82 15.7362 60.1791 15.6165C60.3387 15.5367 60.4185 15.417 60.4185 15.2574C60.4185 15.0578 60.2988 14.9381 60.0993 14.9381C59.82 15.0179 59.5008 15.0578 59.1815 15.0578C58.2239 15.0578 57.5855 14.6189 57.5855 13.4219V7.99532H60.0993ZM65.5658 7.03768C63.451 7.03768 61.8549 8.95295 61.8549 11.4667V11.5066C61.8549 14.18 63.6106 15.9357 65.7254 15.9357C66.8426 15.9756 67.9997 15.4968 68.7579 14.579C68.8776 14.4992 68.9175 14.3795 68.9175 14.2997C68.9175 14.1002 68.718 13.9007 68.5584 13.9007L68.3189 13.9805C68.0024 14.3496 67.611 14.6471 67.1708 14.8535C66.7305 15.0599 66.2514 15.1703 65.7653 15.1776C64.2091 15.1776 62.8126 13.9406 62.653 11.8657H68.8776C69.0372 11.8657 69.2367 11.6662 69.2367 11.4667C69.2367 8.95295 67.8002 7.03768 65.5658 7.03768ZM62.6131 11.0677C62.7328 9.23226 63.9697 7.79581 65.5259 7.79581C67.3214 7.79581 68.279 9.35196 68.3588 11.0677H62.6131ZM75.3416 7.15739C73.9051 7.27709 72.7081 8.27462 72.1894 9.71107V7.6362C72.1894 7.4766 71.9899 7.27709 71.8303 7.27709C71.5909 7.27709 71.4711 7.3968 71.4312 7.6362V15.4569C71.4312 15.6564 71.5909 15.8559 71.7904 15.8559C71.9899 15.8559 72.1495 15.6963 72.1894 15.4569V12.3446C72.1894 9.59137 73.6657 8.27462 75.3416 8.07512H75.3815C75.6209 8.07512 75.7406 7.83571 75.7406 7.6362C75.7406 7.35689 75.581 7.15739 75.3416 7.15739Z" fill="black"/>
<path d="M88.7933 6.71605C88.2746 6.71605 87.7958 7.11506 87.6761 7.67368L86.3194 12.2224L85.0027 7.67368C84.883 7.11506 84.3643 6.67615 83.7658 6.67615H83.6461C83.0475 6.67615 82.5288 7.03526 82.4091 7.67368L81.0924 12.1426L79.8155 7.63378C79.6559 7.11506 79.217 6.67615 78.6584 6.67615H78.6185C78.02 6.67615 77.5811 7.19487 77.5811 7.83329L77.6609 8.43181L79.6958 14.6963C79.8554 15.3347 80.3741 15.7737 81.0126 15.8136H81.0924C81.6909 15.8136 82.1697 15.3746 82.3692 14.7362L83.686 10.2673L85.0027 14.7362C85.1623 15.3746 85.681 15.8136 86.2795 15.8136H86.3992C87.0377 15.8136 87.5564 15.3746 87.716 14.6963L89.751 8.352L89.8707 7.87319V7.83329C89.8707 7.19487 89.3918 6.71605 88.7933 6.71605ZM94.6588 6.71605C93.7411 6.67615 92.8633 6.87565 91.9854 7.15496C91.6263 7.31457 91.4268 7.67368 91.4268 8.1126C91.4268 8.71112 91.8657 9.15003 92.4243 9.11013C92.5042 9.11013 92.6239 9.11013 92.7436 9.03033C93.2623 8.87072 93.8209 8.79092 94.3795 8.79092C95.5766 8.79092 96.1751 9.34954 96.1751 10.4269V10.5466C95.5367 10.3072 94.8184 10.2274 94.1401 10.2274C92.1849 10.2274 90.8283 11.1451 90.8283 13.1003C90.8283 14.816 92.145 15.8136 93.6613 15.8136C94.6189 15.8535 95.5367 15.4145 96.1751 14.6963C96.215 15.3347 96.6938 15.7737 97.2923 15.7737C97.9307 15.7737 98.4494 15.215 98.4494 14.5367V10.5466C98.4893 9.54904 98.1701 8.51161 97.5317 7.75348C96.8534 7.11506 95.9357 6.71605 94.6588 6.71605ZM96.215 12.5017C96.215 13.4594 95.4169 14.0579 94.3396 14.018C93.5815 14.018 93.0628 13.619 93.0628 12.9407V12.9008C93.0628 12.1426 93.7012 11.6638 94.6987 11.6638C95.1775 11.6638 95.7362 11.8234 96.215 12.0229V12.5017ZM106.549 6.67615C106.071 6.67615 105.592 6.99536 105.472 7.55398L103.637 12.7012L101.881 7.59388C101.721 7.03526 101.282 6.67615 100.724 6.67615C100.125 6.67615 99.6465 7.15496 99.5667 7.83329C99.5667 8.03279 99.6465 8.2323 99.7263 8.43181L102.28 14.6963C102.44 15.3347 102.958 15.7737 103.597 15.8136H103.756C104.315 15.7737 104.874 15.3746 105.113 14.7362L107.587 8.47171L107.707 7.87319V7.83329C107.707 7.19487 107.228 6.67615 106.549 6.67615ZM112.734 6.63625C110.3 6.63625 108.624 8.71112 108.624 11.2249V11.6239C108.704 14.0579 110.699 15.9333 112.974 15.8136C114.011 15.8136 115.008 15.4544 115.846 14.7362C116.086 14.5367 116.166 14.2973 116.166 14.018V13.9781C116.166 13.4195 115.767 12.9806 115.248 12.9806C115.048 12.9806 114.849 13.0205 114.689 13.1801C114.224 13.5805 113.627 13.7939 113.013 13.7786C112.016 13.8185 111.138 13.1003 111.018 12.0229H115.687C116.285 11.983 116.764 11.4244 116.724 10.786V10.5865C116.724 8.43181 114.929 6.55644 112.734 6.63625ZM110.939 10.5466C111.138 9.38944 111.776 8.67121 112.734 8.67121C113.692 8.67121 114.33 9.42934 114.45 10.5466H110.939Z" fill="black"/>
</svg>
