<svg width="15" height="15" viewBox="0 0 15 15" fill="none" xmlns="http://www.w3.org/2000/svg">
<path d="M3.49534 14.0716C3.49534 14.3344 3.28229 14.5475 3.01944 14.5475H0.993653C0.73081 14.5475 0.517751 14.3344 0.517751 14.0716V5.57954C0.517751 5.3167 0.73081 5.10364 0.993653 5.10364H3.01944C3.28229 5.10364 3.49534 5.3167 3.49534 5.57954V14.0716ZM2.00655 4.30314C0.943675 4.30314 0.0820312 3.44149 0.0820312 2.37862C0.0820312 1.31575 0.943675 0.454102 2.00655 0.454102C3.06942 0.454102 3.93105 1.31575 3.93105 2.37862C3.93105 3.44149 3.06947 4.30314 2.00655 4.30314ZM14.082 14.1099C14.082 14.3516 13.8861 14.5475 13.6445 14.5475H11.4706C11.229 14.5475 11.0331 14.3516 11.0331 14.1099V10.1267C11.0331 9.53245 11.2074 7.5228 9.4802 7.5228C8.14048 7.5228 7.86873 8.89835 7.81417 9.51565V14.1099C7.81417 14.3516 7.61829 14.5475 7.3766 14.5475H5.27416C5.03251 14.5475 4.8366 14.3516 4.8366 14.1099V5.54121C4.8366 5.29957 5.03251 5.10364 5.27416 5.10364H7.3766C7.61824 5.10364 7.81417 5.29957 7.81417 5.54121V6.28208C8.31094 5.53657 9.04921 4.96114 10.6211 4.96114C14.102 4.96114 14.082 8.21313 14.082 9.99993V14.1099Z" fill="#B5B5B5"/>
</svg>
