<svg width="50" height="50" viewBox="0 0 50 50" fill="none" xmlns="http://www.w3.org/2000/svg">
<path d="M8.85511 21.7591L21.232 19.4652C21.9297 19.3359 22.6468 19.5472 23.1624 20.034L39.1019 35.0857C40.4253 36.3353 39.7673 38.5614 37.9764 38.8934L25.5995 41.1873C24.9018 41.3166 24.1847 41.1053 23.6691 40.6184L7.7296 25.5668C6.40621 24.3171 7.06422 22.091 8.85511 21.7591Z" fill="#0263D6"/>
<path d="M10.0231 11.1068L22.4 8.81284C23.0977 8.68353 23.8148 8.89485 24.3303 9.38169L40.2699 24.4333C41.5933 25.683 40.9352 27.9091 39.1444 28.241L26.7674 30.5349C26.0697 30.6642 25.3527 30.4529 24.8371 29.9661L8.89757 14.9145C7.57418 13.6648 8.23219 11.4387 10.0231 11.1068Z" fill="#0263D6"/>
</svg>
