<svg width="14" height="12" viewBox="0 0 14 12" fill="none" xmlns="http://www.w3.org/2000/svg">
<path d="M14 0.360403C13.3906 0.790252 12.7159 1.11902 12.0018 1.33404C11.6186 0.893364 11.1092 0.581025 10.5427 0.439265C9.9761 0.297505 9.37968 0.333164 8.83405 0.541419C8.28842 0.749674 7.81992 1.12048 7.4919 1.60368C7.16388 2.08688 6.99217 2.65916 7 3.24313V3.87949C5.88168 3.90849 4.77354 3.66047 3.77428 3.15751C2.77502 2.65454 1.91566 1.91226 1.27273 0.996767C1.27273 0.996767 -1.27273 6.72404 4.45455 9.26949C3.14397 10.1591 1.58274 10.6052 0 10.5422C5.72727 13.724 12.7273 10.5422 12.7273 3.22404C12.7267 3.04678 12.7096 2.86996 12.6764 2.69586C13.3258 2.05535 13.7842 1.24667 14 0.360403Z" fill="#B5B5B5"/>
</svg>
